<mxfile host="app.diagrams.net" agent="Mozilla/5.0 (Windows NT 10.0; Win64; x64) AppleWebKit/537.36 (KHTML, like Gecko) Chrome/131.0.0.0 Safari/537.36 OPR/116.0.0.0" version="26.0.15">
  <diagram name="Page-1" id="Y1P6PIaUS7398snp-e4c">
    <mxGraphModel dx="2660" dy="976" grid="1" gridSize="10" guides="1" tooltips="1" connect="1" arrows="1" fold="1" page="1" pageScale="1" pageWidth="827" pageHeight="1169" math="0" shadow="0">
      <root>
        <mxCell id="0" />
        <mxCell id="1" parent="0" />
        <mxCell id="bNupd46AkEKRskBJpf6S-85" value="" style="rounded=0;whiteSpace=wrap;html=1;hachureGap=4;fontFamily=Architects Daughter;fontSource=https%3A%2F%2Ffonts.googleapis.com%2Fcss%3Ffamily%3DArchitects%2BDaughter;" vertex="1" parent="1">
          <mxGeometry x="476" y="1020" width="190.87" height="100" as="geometry" />
        </mxCell>
        <mxCell id="bNupd46AkEKRskBJpf6S-83" value="" style="rounded=0;whiteSpace=wrap;html=1;hachureGap=4;fontFamily=Architects Daughter;fontSource=https%3A%2F%2Ffonts.googleapis.com%2Fcss%3Ffamily%3DArchitects%2BDaughter;" vertex="1" parent="1">
          <mxGeometry x="476" y="794.5" width="190" height="105" as="geometry" />
        </mxCell>
        <mxCell id="bNupd46AkEKRskBJpf6S-84" value="DATA STORAGE SERVICE" style="text;html=1;align=center;verticalAlign=middle;whiteSpace=wrap;rounded=0;fontFamily=Architects Daughter;fontSource=https%3A%2F%2Ffonts.googleapis.com%2Fcss%3Ffamily%3DArchitects%2BDaughter;" vertex="1" parent="1">
          <mxGeometry x="499" y="790" width="181" height="30" as="geometry" />
        </mxCell>
        <mxCell id="bNupd46AkEKRskBJpf6S-80" value="" style="rounded=0;whiteSpace=wrap;html=1;hachureGap=4;fontFamily=Architects Daughter;fontSource=https%3A%2F%2Ffonts.googleapis.com%2Fcss%3Ffamily%3DArchitects%2BDaughter;" vertex="1" parent="1">
          <mxGeometry x="9.13" y="810" width="450.87" height="330" as="geometry" />
        </mxCell>
        <mxCell id="bNupd46AkEKRskBJpf6S-78" value="" style="rounded=0;whiteSpace=wrap;html=1;hachureGap=4;fontFamily=Architects Daughter;fontSource=https%3A%2F%2Ffonts.googleapis.com%2Fcss%3Ffamily%3DArchitects%2BDaughter;" vertex="1" parent="1">
          <mxGeometry x="199.13" y="640" width="190.87" height="90" as="geometry" />
        </mxCell>
        <mxCell id="bNupd46AkEKRskBJpf6S-79" value="DATA VISUALIZATION SERVICE" style="text;html=1;align=center;verticalAlign=middle;whiteSpace=wrap;rounded=0;fontFamily=Architects Daughter;fontSource=https%3A%2F%2Ffonts.googleapis.com%2Fcss%3Ffamily%3DArchitects%2BDaughter;" vertex="1" parent="1">
          <mxGeometry x="199.13" y="705" width="180" height="30" as="geometry" />
        </mxCell>
        <mxCell id="bNupd46AkEKRskBJpf6S-76" value="" style="rounded=0;whiteSpace=wrap;html=1;hachureGap=4;fontFamily=Architects Daughter;fontSource=https%3A%2F%2Ffonts.googleapis.com%2Fcss%3Ffamily%3DArchitects%2BDaughter;" vertex="1" parent="1">
          <mxGeometry x="9.13" y="527" width="164.5" height="200" as="geometry" />
        </mxCell>
        <mxCell id="bNupd46AkEKRskBJpf6S-74" value="" style="rounded=0;whiteSpace=wrap;html=1;hachureGap=4;fontFamily=Architects Daughter;fontSource=https%3A%2F%2Ffonts.googleapis.com%2Fcss%3Ffamily%3DArchitects%2BDaughter;" vertex="1" parent="1">
          <mxGeometry x="199.13" y="524.5" width="190" height="105" as="geometry" />
        </mxCell>
        <mxCell id="bNupd46AkEKRskBJpf6S-75" value="DATA STORAGE SERVICE" style="text;html=1;align=center;verticalAlign=middle;whiteSpace=wrap;rounded=0;fontFamily=Architects Daughter;fontSource=https%3A%2F%2Ffonts.googleapis.com%2Fcss%3Ffamily%3DArchitects%2BDaughter;" vertex="1" parent="1">
          <mxGeometry x="222.13" y="520" width="181" height="30" as="geometry" />
        </mxCell>
        <mxCell id="bNupd46AkEKRskBJpf6S-71" value="" style="rounded=0;whiteSpace=wrap;html=1;hachureGap=4;fontFamily=Architects Daughter;fontSource=https%3A%2F%2Ffonts.googleapis.com%2Fcss%3Ffamily%3DArchitects%2BDaughter;" vertex="1" parent="1">
          <mxGeometry x="199.13" y="356" width="190" height="90" as="geometry" />
        </mxCell>
        <mxCell id="bNupd46AkEKRskBJpf6S-72" value="DATA VISUALIZATION SERVICE" style="text;html=1;align=center;verticalAlign=middle;whiteSpace=wrap;rounded=0;fontFamily=Architects Daughter;fontSource=https%3A%2F%2Ffonts.googleapis.com%2Fcss%3Ffamily%3DArchitects%2BDaughter;" vertex="1" parent="1">
          <mxGeometry x="199.13" y="421" width="180" height="30" as="geometry" />
        </mxCell>
        <mxCell id="bNupd46AkEKRskBJpf6S-69" value="" style="rounded=0;whiteSpace=wrap;html=1;hachureGap=4;fontFamily=Architects Daughter;fontSource=https%3A%2F%2Ffonts.googleapis.com%2Fcss%3Ffamily%3DArchitects%2BDaughter;" vertex="1" parent="1">
          <mxGeometry x="229.13" y="216" width="340" height="105" as="geometry" />
        </mxCell>
        <mxCell id="bNupd46AkEKRskBJpf6S-65" value="" style="rounded=0;whiteSpace=wrap;html=1;hachureGap=4;fontFamily=Architects Daughter;fontSource=https%3A%2F%2Ffonts.googleapis.com%2Fcss%3Ffamily%3DArchitects%2BDaughter;" vertex="1" parent="1">
          <mxGeometry x="219.13" y="106" width="180" height="90" as="geometry" />
        </mxCell>
        <mxCell id="bNupd46AkEKRskBJpf6S-63" value="" style="rounded=0;whiteSpace=wrap;html=1;hachureGap=4;fontFamily=Architects Daughter;fontSource=https%3A%2F%2Ffonts.googleapis.com%2Fcss%3Ffamily%3DArchitects%2BDaughter;" vertex="1" parent="1">
          <mxGeometry x="9.13" y="106" width="180" height="90" as="geometry" />
        </mxCell>
        <mxCell id="bNupd46AkEKRskBJpf6S-82" style="edgeStyle=orthogonalEdgeStyle;rounded=0;hachureGap=4;orthogonalLoop=1;jettySize=auto;html=1;exitX=0;exitY=0.5;exitDx=0;exitDy=0;entryX=1;entryY=0.5;entryDx=0;entryDy=0;fontFamily=Architects Daughter;fontSource=https%3A%2F%2Ffonts.googleapis.com%2Fcss%3Ffamily%3DArchitects%2BDaughter;" edge="1" parent="1" source="bNupd46AkEKRskBJpf6S-2" target="bNupd46AkEKRskBJpf6S-3">
          <mxGeometry relative="1" as="geometry" />
        </mxCell>
        <mxCell id="bNupd46AkEKRskBJpf6S-2" value="RAW DATA" style="rounded=1;whiteSpace=wrap;html=1;hachureGap=4;fontFamily=Architects Daughter;fontSource=https%3A%2F%2Ffonts.googleapis.com%2Fcss%3Ffamily%3DArchitects%2BDaughter;" vertex="1" parent="1">
          <mxGeometry x="490" y="820" width="120" height="60" as="geometry" />
        </mxCell>
        <mxCell id="bNupd46AkEKRskBJpf6S-10" style="edgeStyle=orthogonalEdgeStyle;rounded=0;hachureGap=4;orthogonalLoop=1;jettySize=auto;html=1;exitX=0.5;exitY=1;exitDx=0;exitDy=0;entryX=0.5;entryY=0;entryDx=0;entryDy=0;fontFamily=Architects Daughter;fontSource=https%3A%2F%2Ffonts.googleapis.com%2Fcss%3Ffamily%3DArchitects%2BDaughter;" edge="1" parent="1" source="bNupd46AkEKRskBJpf6S-3" target="bNupd46AkEKRskBJpf6S-5">
          <mxGeometry relative="1" as="geometry" />
        </mxCell>
        <mxCell id="bNupd46AkEKRskBJpf6S-3" value="FEATURE EXTRACTION" style="rounded=1;whiteSpace=wrap;html=1;hachureGap=4;fontFamily=Architects Daughter;fontSource=https%3A%2F%2Ffonts.googleapis.com%2Fcss%3Ffamily%3DArchitects%2BDaughter;" vertex="1" parent="1">
          <mxGeometry x="240" y="820" width="120" height="60" as="geometry" />
        </mxCell>
        <mxCell id="bNupd46AkEKRskBJpf6S-11" style="edgeStyle=orthogonalEdgeStyle;rounded=0;hachureGap=4;orthogonalLoop=1;jettySize=auto;html=1;entryX=0.5;entryY=0;entryDx=0;entryDy=0;fontFamily=Architects Daughter;fontSource=https%3A%2F%2Ffonts.googleapis.com%2Fcss%3Ffamily%3DArchitects%2BDaughter;" edge="1" parent="1" source="bNupd46AkEKRskBJpf6S-4" target="bNupd46AkEKRskBJpf6S-6">
          <mxGeometry relative="1" as="geometry" />
        </mxCell>
        <mxCell id="bNupd46AkEKRskBJpf6S-4" value="TRAINING DATA" style="rounded=1;whiteSpace=wrap;html=1;hachureGap=4;fontFamily=Architects Daughter;fontSource=https%3A%2F%2Ffonts.googleapis.com%2Fcss%3Ffamily%3DArchitects%2BDaughter;" vertex="1" parent="1">
          <mxGeometry x="160" y="940" width="120" height="60" as="geometry" />
        </mxCell>
        <mxCell id="bNupd46AkEKRskBJpf6S-12" style="edgeStyle=orthogonalEdgeStyle;rounded=0;hachureGap=4;orthogonalLoop=1;jettySize=auto;html=1;exitX=0.5;exitY=1;exitDx=0;exitDy=0;entryX=1;entryY=0.5;entryDx=0;entryDy=0;fontFamily=Architects Daughter;fontSource=https%3A%2F%2Ffonts.googleapis.com%2Fcss%3Ffamily%3DArchitects%2BDaughter;" edge="1" parent="1" source="bNupd46AkEKRskBJpf6S-5" target="bNupd46AkEKRskBJpf6S-6">
          <mxGeometry relative="1" as="geometry">
            <Array as="points">
              <mxPoint x="380" y="1020" />
              <mxPoint x="240" y="1020" />
              <mxPoint x="240" y="1040" />
              <mxPoint x="220" y="1040" />
              <mxPoint x="220" y="1080" />
            </Array>
          </mxGeometry>
        </mxCell>
        <mxCell id="bNupd46AkEKRskBJpf6S-5" value="TESTING DATA" style="rounded=1;whiteSpace=wrap;html=1;hachureGap=4;fontFamily=Architects Daughter;fontSource=https%3A%2F%2Ffonts.googleapis.com%2Fcss%3Ffamily%3DArchitects%2BDaughter;" vertex="1" parent="1">
          <mxGeometry x="320" y="940" width="120" height="60" as="geometry" />
        </mxCell>
        <mxCell id="bNupd46AkEKRskBJpf6S-13" style="edgeStyle=orthogonalEdgeStyle;rounded=0;hachureGap=4;orthogonalLoop=1;jettySize=auto;html=1;exitX=0.5;exitY=1;exitDx=0;exitDy=0;entryX=0.5;entryY=1;entryDx=0;entryDy=0;fontFamily=Architects Daughter;fontSource=https%3A%2F%2Ffonts.googleapis.com%2Fcss%3Ffamily%3DArchitects%2BDaughter;" edge="1" parent="1" source="bNupd46AkEKRskBJpf6S-6" target="bNupd46AkEKRskBJpf6S-7">
          <mxGeometry relative="1" as="geometry" />
        </mxCell>
        <mxCell id="bNupd46AkEKRskBJpf6S-6" value="TRAINED DATA RESULT" style="rounded=1;whiteSpace=wrap;html=1;hachureGap=4;fontFamily=Architects Daughter;fontSource=https%3A%2F%2Ffonts.googleapis.com%2Fcss%3Ffamily%3DArchitects%2BDaughter;" vertex="1" parent="1">
          <mxGeometry x="40" y="1050" width="120" height="60" as="geometry" />
        </mxCell>
        <mxCell id="bNupd46AkEKRskBJpf6S-42" style="edgeStyle=orthogonalEdgeStyle;rounded=0;hachureGap=4;orthogonalLoop=1;jettySize=auto;html=1;exitX=1;exitY=0.5;exitDx=0;exitDy=0;entryX=0;entryY=0.5;entryDx=0;entryDy=0;fontFamily=Architects Daughter;fontSource=https%3A%2F%2Ffonts.googleapis.com%2Fcss%3Ffamily%3DArchitects%2BDaughter;" edge="1" parent="1" source="bNupd46AkEKRskBJpf6S-7" target="bNupd46AkEKRskBJpf6S-41">
          <mxGeometry relative="1" as="geometry" />
        </mxCell>
        <mxCell id="bNupd46AkEKRskBJpf6S-7" value="PREDICTED STOCK PRICE" style="rounded=1;whiteSpace=wrap;html=1;hachureGap=4;fontFamily=Architects Daughter;fontSource=https%3A%2F%2Ffonts.googleapis.com%2Fcss%3Ffamily%3DArchitects%2BDaughter;" vertex="1" parent="1">
          <mxGeometry x="240" y="1050" width="120" height="60" as="geometry" />
        </mxCell>
        <mxCell id="bNupd46AkEKRskBJpf6S-9" style="edgeStyle=orthogonalEdgeStyle;rounded=0;hachureGap=4;orthogonalLoop=1;jettySize=auto;html=1;exitX=0.5;exitY=1;exitDx=0;exitDy=0;entryX=0.437;entryY=-0.02;entryDx=0;entryDy=0;entryPerimeter=0;fontFamily=Architects Daughter;fontSource=https%3A%2F%2Ffonts.googleapis.com%2Fcss%3Ffamily%3DArchitects%2BDaughter;" edge="1" parent="1" source="bNupd46AkEKRskBJpf6S-3" target="bNupd46AkEKRskBJpf6S-4">
          <mxGeometry relative="1" as="geometry" />
        </mxCell>
        <mxCell id="bNupd46AkEKRskBJpf6S-14" value="STOCK PRICE PREDICTION" style="text;html=1;align=left;verticalAlign=middle;whiteSpace=wrap;rounded=0;fontFamily=Architects Daughter;fontSource=https%3A%2F%2Ffonts.googleapis.com%2Fcss%3Ffamily%3DArchitects%2BDaughter;fontColor=#00CC66;" vertex="1" parent="1">
          <mxGeometry x="10" y="780" width="350" height="30" as="geometry" />
        </mxCell>
        <mxCell id="bNupd46AkEKRskBJpf6S-15" value="FINANCE API" style="rounded=1;whiteSpace=wrap;html=1;hachureGap=4;fontFamily=Architects Daughter;fontSource=https%3A%2F%2Ffonts.googleapis.com%2Fcss%3Ffamily%3DArchitects%2BDaughter;" vertex="1" parent="1">
          <mxGeometry x="39.13" y="126" width="120" height="60" as="geometry" />
        </mxCell>
        <mxCell id="bNupd46AkEKRskBJpf6S-17" style="edgeStyle=orthogonalEdgeStyle;rounded=0;hachureGap=4;orthogonalLoop=1;jettySize=auto;html=1;exitX=0;exitY=0.5;exitDx=0;exitDy=0;entryX=1;entryY=0.5;entryDx=0;entryDy=0;fontFamily=Architects Daughter;fontSource=https%3A%2F%2Ffonts.googleapis.com%2Fcss%3Ffamily%3DArchitects%2BDaughter;endArrow=blockThin;endFill=1;" edge="1" parent="1" source="bNupd46AkEKRskBJpf6S-16" target="bNupd46AkEKRskBJpf6S-15">
          <mxGeometry relative="1" as="geometry" />
        </mxCell>
        <mxCell id="bNupd46AkEKRskBJpf6S-16" value="REQUESTING DATA" style="rounded=1;whiteSpace=wrap;html=1;hachureGap=4;fontFamily=Architects Daughter;fontSource=https%3A%2F%2Ffonts.googleapis.com%2Fcss%3Ffamily%3DArchitects%2BDaughter;" vertex="1" parent="1">
          <mxGeometry x="249.13" y="126" width="120" height="60" as="geometry" />
        </mxCell>
        <mxCell id="bNupd46AkEKRskBJpf6S-20" value="" style="endArrow=classic;html=1;rounded=0;hachureGap=4;fontFamily=Architects Daughter;fontSource=https%3A%2F%2Ffonts.googleapis.com%2Fcss%3Ffamily%3DArchitects%2BDaughter;curved=1;" edge="1" parent="1">
          <mxGeometry width="50" height="50" relative="1" as="geometry">
            <mxPoint x="190.13" y="156" as="sourcePoint" />
            <mxPoint x="237.13" y="166" as="targetPoint" />
            <Array as="points">
              <mxPoint x="189.13" y="173" />
            </Array>
          </mxGeometry>
        </mxCell>
        <mxCell id="bNupd46AkEKRskBJpf6S-23" style="edgeStyle=orthogonalEdgeStyle;rounded=0;hachureGap=4;orthogonalLoop=1;jettySize=auto;html=1;fontFamily=Architects Daughter;fontSource=https%3A%2F%2Ffonts.googleapis.com%2Fcss%3Ffamily%3DArchitects%2BDaughter;entryX=0.5;entryY=1;entryDx=0;entryDy=0;" edge="1" parent="1" source="bNupd46AkEKRskBJpf6S-22" target="bNupd46AkEKRskBJpf6S-25">
          <mxGeometry relative="1" as="geometry">
            <mxPoint x="29.13" y="216" as="targetPoint" />
            <Array as="points">
              <mxPoint x="489.13" y="386" />
            </Array>
          </mxGeometry>
        </mxCell>
        <mxCell id="bNupd46AkEKRskBJpf6S-32" style="edgeStyle=orthogonalEdgeStyle;rounded=0;hachureGap=4;orthogonalLoop=1;jettySize=auto;html=1;exitX=0.5;exitY=0;exitDx=0;exitDy=0;entryX=0.5;entryY=1;entryDx=0;entryDy=0;fontFamily=Architects Daughter;fontSource=https%3A%2F%2Ffonts.googleapis.com%2Fcss%3Ffamily%3DArchitects%2BDaughter;" edge="1" parent="1" source="bNupd46AkEKRskBJpf6S-22" target="bNupd46AkEKRskBJpf6S-24">
          <mxGeometry relative="1" as="geometry" />
        </mxCell>
        <mxCell id="bNupd46AkEKRskBJpf6S-38" style="edgeStyle=orthogonalEdgeStyle;rounded=0;hachureGap=4;orthogonalLoop=1;jettySize=auto;html=1;exitX=0;exitY=0.75;exitDx=0;exitDy=0;entryX=1;entryY=0.75;entryDx=0;entryDy=0;fontFamily=Architects Daughter;fontSource=https%3A%2F%2Ffonts.googleapis.com%2Fcss%3Ffamily%3DArchitects%2BDaughter;" edge="1" parent="1" source="bNupd46AkEKRskBJpf6S-22" target="bNupd46AkEKRskBJpf6S-36">
          <mxGeometry relative="1" as="geometry" />
        </mxCell>
        <mxCell id="bNupd46AkEKRskBJpf6S-22" value="VISULIZING DATA" style="rounded=1;whiteSpace=wrap;html=1;hachureGap=4;fontFamily=Architects Daughter;fontSource=https%3A%2F%2Ffonts.googleapis.com%2Fcss%3Ffamily%3DArchitects%2BDaughter;" vertex="1" parent="1">
          <mxGeometry x="249.13" y="366" width="120" height="60" as="geometry" />
        </mxCell>
        <mxCell id="bNupd46AkEKRskBJpf6S-29" style="edgeStyle=orthogonalEdgeStyle;rounded=0;hachureGap=4;orthogonalLoop=1;jettySize=auto;html=1;entryX=0.5;entryY=1;entryDx=0;entryDy=0;fontFamily=Architects Daughter;fontSource=https%3A%2F%2Ffonts.googleapis.com%2Fcss%3Ffamily%3DArchitects%2BDaughter;" edge="1" parent="1" source="bNupd46AkEKRskBJpf6S-24" target="bNupd46AkEKRskBJpf6S-16">
          <mxGeometry relative="1" as="geometry" />
        </mxCell>
        <mxCell id="bNupd46AkEKRskBJpf6S-35" style="edgeStyle=orthogonalEdgeStyle;rounded=0;hachureGap=4;orthogonalLoop=1;jettySize=auto;html=1;exitX=1;exitY=0.75;exitDx=0;exitDy=0;entryX=0;entryY=0.75;entryDx=0;entryDy=0;fontFamily=Architects Daughter;fontSource=https%3A%2F%2Ffonts.googleapis.com%2Fcss%3Ffamily%3DArchitects%2BDaughter;" edge="1" parent="1" source="bNupd46AkEKRskBJpf6S-24" target="bNupd46AkEKRskBJpf6S-25">
          <mxGeometry relative="1" as="geometry" />
        </mxCell>
        <mxCell id="bNupd46AkEKRskBJpf6S-40" style="edgeStyle=orthogonalEdgeStyle;rounded=0;hachureGap=4;orthogonalLoop=1;jettySize=auto;html=1;exitX=0.75;exitY=1;exitDx=0;exitDy=0;entryX=0.75;entryY=0;entryDx=0;entryDy=0;fontFamily=Architects Daughter;fontSource=https%3A%2F%2Ffonts.googleapis.com%2Fcss%3Ffamily%3DArchitects%2BDaughter;" edge="1" parent="1" source="bNupd46AkEKRskBJpf6S-24" target="bNupd46AkEKRskBJpf6S-22">
          <mxGeometry relative="1" as="geometry" />
        </mxCell>
        <mxCell id="bNupd46AkEKRskBJpf6S-24" value="PostgreSQL" style="rounded=1;whiteSpace=wrap;html=1;hachureGap=4;fontFamily=Architects Daughter;fontSource=https%3A%2F%2Ffonts.googleapis.com%2Fcss%3Ffamily%3DArchitects%2BDaughter;" vertex="1" parent="1">
          <mxGeometry x="249.13" y="246" width="120" height="60" as="geometry" />
        </mxCell>
        <mxCell id="bNupd46AkEKRskBJpf6S-27" style="edgeStyle=orthogonalEdgeStyle;rounded=0;hachureGap=4;orthogonalLoop=1;jettySize=auto;html=1;entryX=1;entryY=0.5;entryDx=0;entryDy=0;fontFamily=Architects Daughter;fontSource=https%3A%2F%2Ffonts.googleapis.com%2Fcss%3Ffamily%3DArchitects%2BDaughter;" edge="1" parent="1">
          <mxGeometry relative="1" as="geometry">
            <mxPoint x="429.13" y="266" as="sourcePoint" />
            <mxPoint x="369.13" y="266" as="targetPoint" />
          </mxGeometry>
        </mxCell>
        <mxCell id="bNupd46AkEKRskBJpf6S-46" style="edgeStyle=orthogonalEdgeStyle;rounded=0;hachureGap=4;orthogonalLoop=1;jettySize=auto;html=1;exitX=0.75;exitY=1;exitDx=0;exitDy=0;entryX=1;entryY=0.75;entryDx=0;entryDy=0;fontFamily=Architects Daughter;fontSource=https%3A%2F%2Ffonts.googleapis.com%2Fcss%3Ffamily%3DArchitects%2BDaughter;" edge="1" parent="1" source="bNupd46AkEKRskBJpf6S-25" target="bNupd46AkEKRskBJpf6S-22">
          <mxGeometry relative="1" as="geometry" />
        </mxCell>
        <mxCell id="bNupd46AkEKRskBJpf6S-25" value="Redis" style="rounded=1;whiteSpace=wrap;html=1;hachureGap=4;fontFamily=Architects Daughter;fontSource=https%3A%2F%2Ffonts.googleapis.com%2Fcss%3Ffamily%3DArchitects%2BDaughter;" vertex="1" parent="1">
          <mxGeometry x="429.13" y="246" width="120" height="60" as="geometry" />
        </mxCell>
        <mxCell id="bNupd46AkEKRskBJpf6S-30" value="EXECUTIONAL ARCHITECTURE&amp;nbsp;" style="text;html=1;align=center;verticalAlign=middle;whiteSpace=wrap;rounded=0;fontFamily=Architects Daughter;fontSource=https%3A%2F%2Ffonts.googleapis.com%2Fcss%3Ffamily%3DArchitects%2BDaughter;fontColor=#00CC66;" vertex="1" parent="1">
          <mxGeometry x="239" y="10" width="350" height="30" as="geometry" />
        </mxCell>
        <mxCell id="bNupd46AkEKRskBJpf6S-31" value="REQUESTING DATA FOR ISSUER" style="text;html=1;align=left;verticalAlign=middle;whiteSpace=wrap;rounded=0;fontFamily=Architects Daughter;fontSource=https%3A%2F%2Ffonts.googleapis.com%2Fcss%3Ffamily%3DArchitects%2BDaughter;fontColor=#00CC66;" vertex="1" parent="1">
          <mxGeometry x="10" y="60" width="350" height="30" as="geometry" />
        </mxCell>
        <mxCell id="bNupd46AkEKRskBJpf6S-33" value="historical data" style="text;html=1;align=center;verticalAlign=middle;whiteSpace=wrap;rounded=0;fontFamily=Architects Daughter;fontSource=https%3A%2F%2Ffonts.googleapis.com%2Fcss%3Ffamily%3DArchitects%2BDaughter;fontColor=#00CC66;" vertex="1" parent="1">
          <mxGeometry x="239.13" y="326" width="60" height="30" as="geometry" />
        </mxCell>
        <mxCell id="bNupd46AkEKRskBJpf6S-34" value="real time" style="text;html=1;align=center;verticalAlign=middle;whiteSpace=wrap;rounded=0;fontFamily=Architects Daughter;fontSource=https%3A%2F%2Ffonts.googleapis.com%2Fcss%3Ffamily%3DArchitects%2BDaughter;fontColor=#00CC66;" vertex="1" parent="1">
          <mxGeometry x="399.13" y="356" width="60" height="30" as="geometry" />
        </mxCell>
        <mxCell id="bNupd46AkEKRskBJpf6S-37" style="edgeStyle=orthogonalEdgeStyle;rounded=0;hachureGap=4;orthogonalLoop=1;jettySize=auto;html=1;exitX=1;exitY=0.5;exitDx=0;exitDy=0;fontFamily=Architects Daughter;fontSource=https%3A%2F%2Ffonts.googleapis.com%2Fcss%3Ffamily%3DArchitects%2BDaughter;" edge="1" parent="1" source="bNupd46AkEKRskBJpf6S-36">
          <mxGeometry relative="1" as="geometry">
            <mxPoint x="249.13" y="386" as="targetPoint" />
            <Array as="points">
              <mxPoint x="159.13" y="386" />
              <mxPoint x="249.13" y="386" />
            </Array>
          </mxGeometry>
        </mxCell>
        <mxCell id="bNupd46AkEKRskBJpf6S-36" value="GUI" style="rounded=1;whiteSpace=wrap;html=1;hachureGap=4;fontFamily=Architects Daughter;fontSource=https%3A%2F%2Ffonts.googleapis.com%2Fcss%3Ffamily%3DArchitects%2BDaughter;" vertex="1" parent="1">
          <mxGeometry x="39.13" y="366" width="120" height="60" as="geometry" />
        </mxCell>
        <mxCell id="bNupd46AkEKRskBJpf6S-39" value="" style="endArrow=classic;html=1;rounded=0;hachureGap=4;fontFamily=Architects Daughter;fontSource=https%3A%2F%2Ffonts.googleapis.com%2Fcss%3Ffamily%3DArchitects%2BDaughter;curved=1;" edge="1" parent="1">
          <mxGeometry x="-0.0917" width="50" height="50" relative="1" as="geometry">
            <mxPoint x="309.13" y="206" as="sourcePoint" />
            <mxPoint x="299.13" y="236" as="targetPoint" />
            <Array as="points">
              <mxPoint x="279.13" y="206" />
            </Array>
            <mxPoint as="offset" />
          </mxGeometry>
        </mxCell>
        <mxCell id="bNupd46AkEKRskBJpf6S-44" style="edgeStyle=orthogonalEdgeStyle;rounded=0;hachureGap=4;orthogonalLoop=1;jettySize=auto;html=1;exitX=1;exitY=0.5;exitDx=0;exitDy=0;entryX=0;entryY=0.5;entryDx=0;entryDy=0;fontFamily=Architects Daughter;fontSource=https%3A%2F%2Ffonts.googleapis.com%2Fcss%3Ffamily%3DArchitects%2BDaughter;" edge="1" parent="1" source="bNupd46AkEKRskBJpf6S-41" target="bNupd46AkEKRskBJpf6S-43">
          <mxGeometry relative="1" as="geometry" />
        </mxCell>
        <mxCell id="bNupd46AkEKRskBJpf6S-41" value="VISUALIZING PREDICTION" style="rounded=1;whiteSpace=wrap;html=1;hachureGap=4;fontFamily=Architects Daughter;fontSource=https%3A%2F%2Ffonts.googleapis.com%2Fcss%3Ffamily%3DArchitects%2BDaughter;" vertex="1" parent="1">
          <mxGeometry x="490" y="1050" width="120" height="60" as="geometry" />
        </mxCell>
        <mxCell id="bNupd46AkEKRskBJpf6S-43" value="GUI" style="rounded=1;whiteSpace=wrap;html=1;hachureGap=4;fontFamily=Architects Daughter;fontSource=https%3A%2F%2Ffonts.googleapis.com%2Fcss%3Ffamily%3DArchitects%2BDaughter;" vertex="1" parent="1">
          <mxGeometry x="690" y="1050" width="120" height="60" as="geometry" />
        </mxCell>
        <mxCell id="bNupd46AkEKRskBJpf6S-47" style="edgeStyle=orthogonalEdgeStyle;rounded=0;hachureGap=4;orthogonalLoop=1;jettySize=auto;html=1;exitX=1;exitY=0.5;exitDx=0;exitDy=0;entryX=0;entryY=0.5;entryDx=0;entryDy=0;fontFamily=Architects Daughter;fontSource=https%3A%2F%2Ffonts.googleapis.com%2Fcss%3Ffamily%3DArchitects%2BDaughter;" edge="1" parent="1" source="bNupd46AkEKRskBJpf6S-48" target="bNupd46AkEKRskBJpf6S-50">
          <mxGeometry relative="1" as="geometry" />
        </mxCell>
        <mxCell id="bNupd46AkEKRskBJpf6S-61" style="edgeStyle=orthogonalEdgeStyle;rounded=0;hachureGap=4;orthogonalLoop=1;jettySize=auto;html=1;exitX=0.75;exitY=0;exitDx=0;exitDy=0;entryX=0.75;entryY=1;entryDx=0;entryDy=0;fontFamily=Architects Daughter;fontSource=https%3A%2F%2Ffonts.googleapis.com%2Fcss%3Ffamily%3DArchitects%2BDaughter;" edge="1" parent="1" source="bNupd46AkEKRskBJpf6S-48" target="bNupd46AkEKRskBJpf6S-55">
          <mxGeometry relative="1" as="geometry" />
        </mxCell>
        <mxCell id="bNupd46AkEKRskBJpf6S-48" value="ANALYSIS INDICATORS" style="rounded=1;whiteSpace=wrap;html=1;hachureGap=4;fontFamily=Architects Daughter;fontSource=https%3A%2F%2Ffonts.googleapis.com%2Fcss%3Ffamily%3DArchitects%2BDaughter;" vertex="1" parent="1">
          <mxGeometry x="39.13" y="647" width="120" height="60" as="geometry" />
        </mxCell>
        <mxCell id="bNupd46AkEKRskBJpf6S-49" style="edgeStyle=orthogonalEdgeStyle;rounded=0;hachureGap=4;orthogonalLoop=1;jettySize=auto;html=1;exitX=1;exitY=0.5;exitDx=0;exitDy=0;entryX=0;entryY=0.5;entryDx=0;entryDy=0;fontFamily=Architects Daughter;fontSource=https%3A%2F%2Ffonts.googleapis.com%2Fcss%3Ffamily%3DArchitects%2BDaughter;" edge="1" parent="1" source="bNupd46AkEKRskBJpf6S-50" target="bNupd46AkEKRskBJpf6S-51">
          <mxGeometry relative="1" as="geometry" />
        </mxCell>
        <mxCell id="bNupd46AkEKRskBJpf6S-50" value="INDICATOR VIZUALIZATION" style="rounded=1;whiteSpace=wrap;html=1;hachureGap=4;fontFamily=Architects Daughter;fontSource=https%3A%2F%2Ffonts.googleapis.com%2Fcss%3Ffamily%3DArchitects%2BDaughter;" vertex="1" parent="1">
          <mxGeometry x="229.13" y="647" width="120" height="60" as="geometry" />
        </mxCell>
        <mxCell id="bNupd46AkEKRskBJpf6S-51" value="GUI" style="rounded=1;whiteSpace=wrap;html=1;hachureGap=4;fontFamily=Architects Daughter;fontSource=https%3A%2F%2Ffonts.googleapis.com%2Fcss%3Ffamily%3DArchitects%2BDaughter;" vertex="1" parent="1">
          <mxGeometry x="419.13" y="647" width="120" height="60" as="geometry" />
        </mxCell>
        <mxCell id="bNupd46AkEKRskBJpf6S-60" style="edgeStyle=orthogonalEdgeStyle;rounded=0;hachureGap=4;orthogonalLoop=1;jettySize=auto;html=1;exitX=0.25;exitY=1;exitDx=0;exitDy=0;entryX=0.25;entryY=0;entryDx=0;entryDy=0;fontFamily=Architects Daughter;fontSource=https%3A%2F%2Ffonts.googleapis.com%2Fcss%3Ffamily%3DArchitects%2BDaughter;" edge="1" parent="1" source="bNupd46AkEKRskBJpf6S-55" target="bNupd46AkEKRskBJpf6S-48">
          <mxGeometry relative="1" as="geometry" />
        </mxCell>
        <mxCell id="bNupd46AkEKRskBJpf6S-55" value="ANALYZING&amp;nbsp;&lt;div&gt;DATA&lt;/div&gt;" style="rounded=1;whiteSpace=wrap;html=1;hachureGap=4;fontFamily=Architects Daughter;fontSource=https%3A%2F%2Ffonts.googleapis.com%2Fcss%3Ffamily%3DArchitects%2BDaughter;" vertex="1" parent="1">
          <mxGeometry x="39.13" y="547" width="120" height="60" as="geometry" />
        </mxCell>
        <mxCell id="bNupd46AkEKRskBJpf6S-58" style="edgeStyle=orthogonalEdgeStyle;rounded=0;hachureGap=4;orthogonalLoop=1;jettySize=auto;html=1;exitX=0;exitY=0.5;exitDx=0;exitDy=0;entryX=1;entryY=0.5;entryDx=0;entryDy=0;fontFamily=Architects Daughter;fontSource=https%3A%2F%2Ffonts.googleapis.com%2Fcss%3Ffamily%3DArchitects%2BDaughter;" edge="1" parent="1" source="bNupd46AkEKRskBJpf6S-57" target="bNupd46AkEKRskBJpf6S-55">
          <mxGeometry relative="1" as="geometry" />
        </mxCell>
        <mxCell id="bNupd46AkEKRskBJpf6S-57" value="RAW DATA" style="rounded=1;whiteSpace=wrap;html=1;hachureGap=4;fontFamily=Architects Daughter;fontSource=https%3A%2F%2Ffonts.googleapis.com%2Fcss%3Ffamily%3DArchitects%2BDaughter;" vertex="1" parent="1">
          <mxGeometry x="229.13" y="547" width="120" height="60" as="geometry" />
        </mxCell>
        <mxCell id="bNupd46AkEKRskBJpf6S-62" value="DATA ANALYSIS" style="text;html=1;align=left;verticalAlign=middle;whiteSpace=wrap;rounded=0;fontFamily=Architects Daughter;fontSource=https%3A%2F%2Ffonts.googleapis.com%2Fcss%3Ffamily%3DArchitects%2BDaughter;fontColor=#00CC66;" vertex="1" parent="1">
          <mxGeometry x="10" y="480" width="350" height="30" as="geometry" />
        </mxCell>
        <mxCell id="bNupd46AkEKRskBJpf6S-64" value="EXTERNAL SERVICE" style="text;html=1;align=center;verticalAlign=middle;whiteSpace=wrap;rounded=0;fontFamily=Architects Daughter;fontSource=https%3A%2F%2Ffonts.googleapis.com%2Fcss%3Ffamily%3DArchitects%2BDaughter;" vertex="1" parent="1">
          <mxGeometry x="-1.87" y="100" width="161" height="30" as="geometry" />
        </mxCell>
        <mxCell id="bNupd46AkEKRskBJpf6S-66" value="DATA INGESTION SERVICE" style="text;html=1;align=center;verticalAlign=middle;whiteSpace=wrap;rounded=0;fontFamily=Architects Daughter;fontSource=https%3A%2F%2Ffonts.googleapis.com%2Fcss%3Ffamily%3DArchitects%2BDaughter;" vertex="1" parent="1">
          <mxGeometry x="229.13" y="100" width="183" height="30" as="geometry" />
        </mxCell>
        <mxCell id="bNupd46AkEKRskBJpf6S-70" value="DATA STORAGE SERVICE" style="text;html=1;align=center;verticalAlign=middle;whiteSpace=wrap;rounded=0;fontFamily=Architects Daughter;fontSource=https%3A%2F%2Ffonts.googleapis.com%2Fcss%3Ffamily%3DArchitects%2BDaughter;" vertex="1" parent="1">
          <mxGeometry x="399.13" y="216" width="181" height="30" as="geometry" />
        </mxCell>
        <mxCell id="bNupd46AkEKRskBJpf6S-77" value="DATA ANALYSIS SERVICE" style="text;html=1;align=center;verticalAlign=middle;whiteSpace=wrap;rounded=0;fontFamily=Architects Daughter;fontSource=https%3A%2F%2Ffonts.googleapis.com%2Fcss%3Ffamily%3DArchitects%2BDaughter;" vertex="1" parent="1">
          <mxGeometry x="0.88" y="520" width="181" height="30" as="geometry" />
        </mxCell>
        <mxCell id="bNupd46AkEKRskBJpf6S-81" value="DATA ANALYSIS SERVICE" style="text;html=1;align=center;verticalAlign=middle;whiteSpace=wrap;rounded=0;fontFamily=Architects Daughter;fontSource=https%3A%2F%2Ffonts.googleapis.com%2Fcss%3Ffamily%3DArchitects%2BDaughter;" vertex="1" parent="1">
          <mxGeometry x="0.8799999999999955" y="810" width="181" height="30" as="geometry" />
        </mxCell>
        <mxCell id="bNupd46AkEKRskBJpf6S-86" value="DATA VISUALIZATION SERVICE" style="text;html=1;align=center;verticalAlign=middle;whiteSpace=wrap;rounded=0;fontFamily=Architects Daughter;fontSource=https%3A%2F%2Ffonts.googleapis.com%2Fcss%3Ffamily%3DArchitects%2BDaughter;" vertex="1" parent="1">
          <mxGeometry x="486.87" y="1020" width="180" height="30" as="geometry" />
        </mxCell>
      </root>
    </mxGraphModel>
  </diagram>
</mxfile>
